<svg width="45" height="45" viewBox="0 0 45 45" fill="none" xmlns="http://www.w3.org/2000/svg">
<path d="M35.625 5.625H9.375C7.3125 5.625 5.625 7.3125 5.625 9.375V35.625C5.625 37.6875 7.3125 39.375 9.375 39.375H35.625C37.6875 39.375 39.375 37.6875 39.375 35.625V9.375C39.375 7.3125 37.6875 5.625 35.625 5.625ZM20.0813 30.5438C19.35 31.275 18.1688 31.275 17.4375 30.5438L10.7063 23.8125C9.975 23.0812 9.975 21.9 10.7063 21.1687C11.4375 20.4375 12.6187 20.4375 13.35 21.1687L18.75 26.5688L31.65 13.6687C32.3812 12.9375 33.5625 12.9375 34.2938 13.6687C35.025 14.4 35.025 15.5812 34.2938 16.3125L20.0813 30.5438V30.5438Z" fill="#3B755F"/>
</svg>
